<svg width="225" height="225" viewBox="0 0 225 225" fill="none" xmlns="http://www.w3.org/2000/svg">
<path d="M112.499 112.5C138.387 112.5 159.374 91.5133 159.374 65.625C159.374 39.7366 138.387 18.75 112.499 18.75C86.6107 18.75 65.624 39.7366 65.624 65.625C65.624 91.5133 86.6107 112.5 112.499 112.5Z" stroke="#E0D56D" stroke-width="4.16667"/>
<path d="M159.375 131.25H162.675C169.528 131.252 176.146 133.757 181.283 138.293C186.421 142.83 189.725 149.087 190.575 155.887L194.24 185.175C194.57 187.813 194.335 190.492 193.55 193.032C192.766 195.573 191.45 197.917 189.69 199.911C187.93 201.904 185.766 203.5 183.342 204.593C180.918 205.686 178.29 206.251 175.631 206.25H49.3683C46.7094 206.251 44.0808 205.686 41.6569 204.593C39.233 203.5 37.0693 201.904 35.3094 199.911C33.5494 197.917 32.2335 195.573 31.449 193.032C30.6645 190.492 30.4293 187.813 30.759 185.175L34.4152 155.887C35.2655 149.083 38.5722 142.824 43.7136 138.287C48.855 133.75 55.4769 131.247 62.334 131.25H65.6246" stroke="#E0D56D" stroke-width="4.16667" stroke-linecap="round" stroke-linejoin="round"/>
</svg>
